<svg xmlns="http://www.w3.org/2000/svg" width="64" height="64" viewBox="0 0 64 64">
  <defs>
    <linearGradient id="tower" x1="0" y1="0" x2="0" y2="1">
      <stop offset="0%" stop-color="#1d3f64"/>
      <stop offset="100%" stop-color="#0a1528"/>
    </linearGradient>
  </defs>
  <rect width="64" height="64" fill="#090f1d"/>
  <g fill="url(#tower)" stroke="#163153" stroke-width="1">
    <rect x="0" y="0" width="11" height="64"/>
    <rect x="13" y="0" width="9" height="64"/>
    <rect x="24" y="0" width="12" height="64"/>
    <rect x="39" y="0" width="8" height="64"/>
    <rect x="49" y="0" width="15" height="64"/>
  </g>
  <g stroke="#37d9ff" stroke-width="1.3" opacity="0.92">
    <line x1="5" y1="4" x2="5" y2="60"/>
    <line x1="17" y1="2" x2="17" y2="62"/>
    <line x1="30" y1="5" x2="30" y2="59"/>
    <line x1="43" y1="1" x2="43" y2="63"/>
    <line x1="56" y1="3" x2="56" y2="61"/>
  </g>
  <g stroke="#8b4cff" stroke-width="1" opacity="0.65">
    <line x1="0" y1="14" x2="64" y2="14"/>
    <line x1="0" y1="30" x2="64" y2="30"/>
    <line x1="0" y1="46" x2="64" y2="46"/>
  </g>
</svg>
