<svg xmlns="http://www.w3.org/2000/svg" width="64" height="64" viewBox="0 0 64 64">
  <defs>
    <linearGradient id="goal-bg" x1="0" y1="0" x2="1" y2="1">
      <stop offset="0%" stop-color="#5a4b14"/>
      <stop offset="100%" stop-color="#2d2408"/>
    </linearGradient>
    <radialGradient id="goal-core" cx="50%" cy="50%" r="50%">
      <stop offset="0%" stop-color="#fff9d4"/>
      <stop offset="55%" stop-color="#ffe168"/>
      <stop offset="100%" stop-color="#c89b1e"/>
    </radialGradient>
  </defs>
  <rect width="64" height="64" fill="url(#goal-bg)"/>
  <rect x="4" y="4" width="56" height="56" fill="none" stroke="#e2c54d" stroke-width="2"/>
  <g stroke="#8c7424" stroke-width="1" opacity="0.65">
    <line x1="0" y1="12" x2="64" y2="12"/>
    <line x1="0" y1="24" x2="64" y2="24"/>
    <line x1="0" y1="40" x2="64" y2="40"/>
    <line x1="0" y1="52" x2="64" y2="52"/>
  </g>
  <circle cx="32" cy="32" r="19" fill="none" stroke="#f2d86a" stroke-width="3"/>
  <circle cx="32" cy="32" r="13" fill="none" stroke="#b38818" stroke-width="2"/>
  <circle cx="32" cy="32" r="8" fill="url(#goal-core)"/>
  <path d="M32 20 L35.5 28.4 L44.8 29.2 L37.7 35.2 L40.1 44.3 L32 39.1 L23.9 44.3 L26.3 35.2 L19.2 29.2 L28.5 28.4 Z"
        fill="#fff1b8" opacity="0.35"/>
</svg>
