<svg xmlns="http://www.w3.org/2000/svg" width="64" height="64" viewBox="0 0 64 64">
  <defs>
    <linearGradient id="stone" x1="0" y1="0" x2="0" y2="1">
      <stop offset="0%" stop-color="#d7b07d"/>
      <stop offset="100%" stop-color="#9e7750"/>
    </linearGradient>
  </defs>
  <rect width="64" height="64" fill="#7a5a3d"/>
  <g fill="url(#stone)" stroke="#5a3f2b" stroke-width="1">
    <rect x="0" y="0" width="22" height="10"/>
    <rect x="22" y="0" width="22" height="10"/>
    <rect x="44" y="0" width="20" height="10"/>
    <rect x="6" y="10" width="20" height="10"/>
    <rect x="26" y="10" width="22" height="10"/>
    <rect x="48" y="10" width="16" height="10"/>
    <rect x="0" y="20" width="18" height="10"/>
    <rect x="18" y="20" width="22" height="10"/>
    <rect x="40" y="20" width="24" height="10"/>
    <rect x="8" y="30" width="24" height="10"/>
    <rect x="32" y="30" width="24" height="10"/>
    <rect x="0" y="40" width="20" height="10"/>
    <rect x="20" y="40" width="22" height="10"/>
    <rect x="42" y="40" width="22" height="10"/>
    <rect x="4" y="50" width="22" height="14"/>
    <rect x="26" y="50" width="20" height="14"/>
    <rect x="46" y="50" width="18" height="14"/>
  </g>
  <g opacity="0.15" fill="#f7e8cf">
    <circle cx="8" cy="8" r="1"/>
    <circle cx="19" cy="34" r="1"/>
    <circle cx="38" cy="15" r="1"/>
    <circle cx="51" cy="45" r="1"/>
    <circle cx="30" cy="58" r="1"/>
  </g>
</svg>
